<svg version="1.2" xmlns="http://www.w3.org/2000/svg" viewBox="0 0 610 239" width="610" height="239"><defs><linearGradient id="P" gradientUnits="userSpaceOnUse"/><linearGradient id="g1" x1="341.4" y1="14.2" x2="309" y2="228.4" href="#P"><stop stop-color="#ffd626"/><stop offset="1" stop-color="#ffa300"/></linearGradient><linearGradient id="g2" x1="431.8" y1="28.3" x2="431.4" y2="145.3" href="#P"><stop stop-color="#ffd626"/><stop offset="1" stop-color="#ffa300"/></linearGradient><linearGradient id="g3" x1="388.1" y1="42.9" x2="387.9" y2="73.9" href="#P"><stop stop-color="#0069a5"/><stop offset="1" stop-color="#003d6b"/></linearGradient></defs><style>.a{fill:url(#g1)}.b{fill:url(#g2)}.c{fill:url(#g3)}.d{fill:#005286}</style><path class="a" d="m322.3 23.5h8.9l-32.1 213.9h-8.9l32.1-213.9z"/><path class="b" d="m430.2 48.2c-1.3 9.1 63.7 5.9 81.1 4.1l-34.7 43.3 21.9 43c-10.2 1.1-82.7 5.6-81.2-4.6 0.6-3.8 5-3.5 6.1-11.1 2.3-15.2-63.8-15.2-97.2-13.2l13-86.2c34.8 0 99.4-1.1 97.2 13.4-0.8 5.7-5.4 6.4-6.2 11.3z"/><path fill-rule="evenodd" class="c" d="m398 46.8q-0.1 0.4-0.3 0.9-0.2 0.4-0.6 0.7-0.3 0.3-0.8 0.5-0.4 0.2-0.9 0.2-0.5 0-0.9-0.2-0.4-0.1-0.7-0.5-0.3-0.3-0.4-0.7-0.2-0.5-0.1-0.9 0-0.5 0.3-0.9 0.2-0.5 0.5-0.8 0.4-0.3 0.8-0.5 0.5-0.2 1-0.2 0.4 0 0.8 0.2 0.5 0.2 0.8 0.5 0.3 0.3 0.4 0.8 0.2 0.4 0.1 0.9zm-43.3-2.6q-0.4 0-0.9 0.2-0.4 0.2-0.8 0.5-0.3 0.3-0.6 0.8-0.2 0.4-0.3 0.9 0 0.4 0.1 0.8 0.2 0.5 0.5 0.8 0.3 0.4 0.7 0.5 0.4 0.2 0.9 0.2 0.5 0 0.9-0.2 0.5-0.2 0.8-0.5 0.4-0.3 0.6-0.7 0.2-0.5 0.3-0.9 0-0.5-0.1-0.9-0.2-0.5-0.5-0.8-0.3-0.3-0.7-0.5-0.4-0.2-0.9-0.2zm21-6q-0.5 0-0.9 0.2-0.4 0.2-0.8 0.5-0.4 0.3-0.6 0.8-0.2 0.4-0.3 0.9 0 0.4 0.1 0.8 0.2 0.5 0.5 0.8 0.3 0.3 0.7 0.5 0.4 0.2 0.9 0.2 0.4 0 0.9-0.2 0.4-0.2 0.8-0.5 0.3-0.3 0.6-0.7 0.2-0.5 0.3-0.9 0-0.5-0.1-0.9-0.1-0.5-0.4-0.8-0.4-0.4-0.8-0.6-0.4-0.1-0.9-0.1zm-17.5 27.9l0.6 3.1h27.2l1.4-3.1zm35-17.4c-2.4 1.9-6.2 4.5-9.8 4.5-4.3 0-6.6-6.5-7.5-9.8q-0.1 0-0.2 0-0.1 0-0.2 0-0.1 0-0.1 0-0.1 0-0.2 0-0.1 0-0.2 0 0 0-0.1 0-0.1 0-0.2 0 0 0-0.1 0c-1.6 3.3-5.4 9.8-10 9.8-3.9 0-6.8-2.5-8.4-4.4q-0.2 0.1-0.3 0.2-0.1 0.1-0.3 0.1-0.1 0.1-0.3 0.2-0.1 0-0.3 0.1l2.8 14.3h30.7l5.8-14.2q-0.1-0.1-0.3-0.1-0.2-0.1-0.3-0.2-0.1-0.1-0.3-0.3-0.1-0.1-0.2-0.2z"/><path class="d" d="m300.2 23.5h4.1l-13.5 95.5h-4.1l13.5-95.5z"/><path class="d" d="m132.8 119.1q-1.5 0.1-3-0.2-1.5-0.3-3-0.9-1.4-0.6-2.6-1.5-1.3-0.9-2.4-2-0.8-1-1.4-2-0.6-1.1-0.9-2.3-0.4-1.2-0.5-2.4-0.1-1.3 0.1-2.5l1.3-8.6 4.4-2.3-1.7 11.5q-0.1 0.8-0.1 1.6 0.1 0.8 0.3 1.6 0.2 0.7 0.6 1.4 0.4 0.7 0.9 1.3 0.8 0.9 1.7 1.5 0.9 0.6 2 1 1 0.5 2.1 0.7 1.1 0.2 2.2 0.1c6.4 0 12.3-4.4 13-9.8l5.5-38.3-28.8 15.3 6.4-46c1-7.3 8.6-13.3 17-13.3q1.5 0 3.1 0.3 1.5 0.2 2.9 0.8 1.4 0.6 2.7 1.5 1.3 0.9 2.3 2.1 0.8 0.9 1.4 2 0.6 1 1 2.2 0.3 1.2 0.4 2.4 0.1 1.3-0.1 2.5l-1.2 8.7-4.4 2.3 1.6-11.6q0.2-0.8 0.1-1.6 0-0.8-0.3-1.5-0.2-0.8-0.6-1.5-0.4-0.7-0.9-1.3-0.8-0.8-1.7-1.5-0.9-0.6-1.9-1-1.1-0.4-2.2-0.6-1.1-0.2-2.2-0.2c-6.4 0-12.3 4.4-13 9.8l-5.3 38.3 28.8-15.3-6.6 46.1c-1 7.3-8.6 13.2-17 13.2z"/><path class="d" d="m241.2 23.5l-19.7 37.9 13.9 57.6h-4.1l-12.6-52.2-10.6 20.4-4.5 31.8h-4.1l13.5-95.5h4.1l-7.3 51.8 26.9-51.8h4.5z"/><path fill-rule="evenodd" class="d" d="m271.3 87h-16.9l-9.8 32h-4.2l29.3-95.5h4v0.6l2.3 94.9h-4zm-0.1-4l-1.2-46.8-14.3 46.8z"/><path class="d" d="m199.6 27.4h-20.4l-6 42.2h20.4l-0.5 4h-20.5l-5.8 41.4h20.4l-0.5 4h-20.5-2.8-1.2l13.5-95.5h0.7 3.3 20.5l-0.6 3.9z"/><path class="d" d="m286.9 145.9h-20.5l-5.9 42.2h20.4l-0.5 4h-20.5l-6.4 45.4h-4.1l13.5-95.5h0.8 3.3 20.5l-0.6 3.9z"/><path class="d" d="m253.8 142l-0.5 3.9h-12.8l-12.9 91.6h-4.1l12.9-91.6h-14.2l0.6-3.9h31z"/><path class="d" d="m214.2 142l-0.6 3.9h-13.9q-2 0.1-3.9 0.9-2 0.7-3.5 2.1-1.5 1.3-2.5 3.1-1 1.8-1.4 3.8l-9.8 69.5q-0.1 0.8-0.1 1.7 0.1 0.8 0.3 1.6 0.3 0.8 0.7 1.5 0.4 0.8 0.9 1.4 0.6 0.7 1.3 1.2 0.7 0.6 1.5 1 0.8 0.4 1.7 0.6 0.8 0.2 1.7 0.2c4.7 0.1 9.4-4.8 12.4-8l2.9 2.7c-3.5 3.7-8.8 9.3-15.2 9.3h-0.2q-1.3 0-2.6-0.4-1.2-0.3-2.4-0.8-1.2-0.6-2.3-1.4-1-0.8-1.9-1.8-0.8-1-1.4-2.1-0.6-1.1-1-2.3-0.3-1.2-0.4-2.5-0.1-1.2 0.1-2.5l9.8-69.5c0.4-1.8 1-3.5 1.9-5.1 0.8-1.6 2-3 3.4-4.2 1.4-1.2 2.9-2.2 4.6-2.8 1.7-0.7 3.6-1.1 5.4-1.1z"/></svg>