<svg version="1.2" xmlns="http://www.w3.org/2000/svg" viewBox="0 0 891 208" width="891" height="208"><style>.a{fill:#9d9d9c}</style><path  d="m455 161.8c0.7 0.8 0.5 2-0.3 2.7-0.3 0.3-0.8 0.4-1.2 0.4-0.6 0-1.1-0.3-1.5-0.7l-0.1-0.1c-1.9-2.4-5.6-2.4-7.6 0l-0.1 0.1c-0.4 0.4-0.9 0.7-1.5 0.7-0.4 0-0.9-0.1-1.2-0.4-0.8-0.7-1-1.8-0.3-2.7l5.3-6.7c0 0 0.1-0.1 0.2-0.1 0-0.1 0-0.1 0.1-0.2 0.1 0 0.1 0 0.1 0 0.1-0.1 0.2-0.2 0.2-0.2 0.1 0 0.2 0 0.2 0 0 0 0.1-0.1 0.2-0.1 0-0.1 0.1-0.1 0.2-0.1q0.1 0 0.2 0 0.1 0 0.2 0 0.1 0 0.2 0 0.1 0 0.2 0c0 0.1 0.1 0.1 0.2 0.1 0 0 0 0.1 0.1 0.1 0.1 0 0.1 0 0.2 0 0.1 0.1 0.1 0.1 0.2 0.2 0.1 0 0.1 0 0.1 0 0.1 0.1 0.1 0.1 0.2 0.2 0 0 0 0.1 0.1 0.2z"/><path  d="m445.7 47.2c0 2.9-2.3 5.1-5.1 5.1-1.9 0-3.7-1.1-4.5-2.8l-9 3.3v6.9c0 0.7-0.5 1.3-1.3 1.3h-9.4c-0.6 2.2-2.6 3.8-4.9 3.8-2.9 0-5.1-2.4-5.1-5.1 0-2.9 2.3-5.1 5.1-5.1 2.3 0 4.3 1.6 4.9 3.7h8.1v-6.4c0-0.6 0.4-1 0.9-1.2l10.2-3.7c0.1-2.8 2.3-4.9 5.1-4.9 2.7 0 5 2.3 5 5.1z"/><path class="a" d="m435 138.4c1 0.3 2 0.5 3 0.7-0.3 0.6-0.6 1.1-1 1.5-6.5-0.1-12.6-4.6-15.1-7.1 1 0.5 2.1 1 3.3 1.6 1.5 0.6 3.1 1.2 4.7 1.8 1.7 0.6 3.3 1.1 5.1 1.5z"/><path fill-rule="evenodd" d="m507.7 115.1c1.1 1.2 1.7 2.8 1.7 4.5 0 2.8-1.7 5.2-4.1 6.2v26.3c0 0.4-0.2 0.9-0.4 1.3l-1.5 1-19.9 14v16.7c0 1.4-1.1 2.5-2.5 2.5h-66.2c-1.4 0-2.5-1.1-2.5-2.5v-16.7l-19.8-14-1.4-1c-0.3-0.3-0.4-0.8-0.4-1.3v-26.1c-2.7-0.9-4.6-3.3-4.6-6.3 0-1.9 0.7-3.6 2-4.8-3.4-7.9-5.1-16.6-5.1-25.3 0-30.4 21.4-56.7 50.6-63.3 0.6-3 3.3-5.3 6.5-5.3 3.7 0 6.7 3 6.7 6.7 0 3.7-3 6.7-6.7 6.7-2.4 0-4.5-1.4-5.7-3.3-22.2 5.2-39.4 22.6-44.8 44.4h28.5c0.6-2.2 2.5-3.8 4.9-3.8 2.8 0 5.1 2.3 5.1 5.1 0 2.8-2.3 5.1-5.1 5.1-2.4 0-4.3-1.6-4.9-3.8h-29.1c-0.7 3.8-1.1 7.7-1.1 11.7 0 8 1.6 16 4.7 23.3q0.1 0 0.2 0c1.5 0 2.8 0.5 3.8 1.3l1.2-0.4c2.5-0.9 17.3-6.2 33.9-15.5l-19.4-5.8-6.3 2.4c0 0.2 0.1 0.4 0.1 0.6 0 2.9-2.3 5.1-5.1 5.1-2.8 0-5.1-2.3-5.1-5.1 0-2.8 2.3-5.1 5.1-5.1 1.7 0 3.2 0.8 4.1 2.1l6.6-2.6c0.3-0.1 0.6-0.1 0.8-0.1l22.3 6.7c4.6-2.7 9.3-5.7 13.9-9l-7.8-18c-0.1 0-0.2 0-0.3 0-2.9 0-5.1-2.4-5.1-5.1 0-2.9 2.3-5.1 5.1-5.1 2.8 0 5.1 2.3 5.1 5.1 0 1.7-0.9 3.3-2.3 4.2l7.4 17.3c6.6-4.9 12.8-10.4 17.7-16.4v-11.6c-1.2-0.3-2.2-1-2.8-2l-9.8 3.8c-0.2 0-0.4 0-0.5 0-0.3 0-0.5 0-0.7-0.2-0.3-0.2-0.5-0.6-0.5-1v-24.5c-3-0.6-5.3-3.3-5.3-6.4 0-3.8 3-6.7 6.7-6.7 3.2 0 5.8 2.2 6.5 5.2 26.2 5.8 46.1 27.3 50.2 53.6 0 0.2 0 0.4 0 0.6 0.5 3 0.7 6.1 0.7 9.2 0 8.8-1.8 17.5-5.3 25.4zm-70.8-87.3c0 1.1 0.6 2.1 1.5 2.7 0.5 0.3 1.1 0.5 1.8 0.5 1.8 0 3.2-1.5 3.2-3.2 0-1.8-1.4-3.3-3.2-3.3-0.9 0-1.8 0.4-2.4 1.1-0.5 0.5-0.9 1.3-0.9 2.2zm18.6 3.1c0.8 0 1.4-0.2 1.9-0.6 0.9-0.6 1.4-1.6 1.4-2.7 0-0.8-0.3-1.6-0.9-2.2-0.6-0.6-1.4-1-2.3-1-1.8 0-3.2 1.5-3.2 3.3 0 1.8 1.4 3.2 3.1 3.2zm14.3 17.2c2.9 0 5.1 2.3 5.1 5.1 0 2.4-1.5 4.3-3.7 4.9v8.2c5.9-8.2 9.7-17.2 9.8-27-5.9-3.9-12.5-6.7-19.6-8.3-1 1.6-2.6 2.8-4.6 3.2v22.5l8.1-3.1c0-0.1-0.1-0.2-0.1-0.4 0-2.8 2.3-5.1 5-5.1zm-74.3 73.3c0.3-0.5 0.5-1 0.5-1.6 0-1.2-0.7-2.2-1.6-2.8-0.5-0.2-1-0.4-1.6-0.4-1.3 0-2.5 0.8-3 2-0.1 0.4-0.2 0.8-0.2 1.2 0 0.9 0.5 1.7 1.1 2.3 0.6 0.5 1.4 0.8 2.2 0.8 1.2 0 2.1-0.6 2.6-1.5zm112.1-23.2c-4 7.2-10.1 13.5-16.8 18.9v20.1c0 1.9-1 3.6-2.6 4.6l-17.4 9.8c-3.3 2.2-7.8 1.7-10.6-1.1l-11.2-11.4c-0.1 0-0.1-0.1-0.2-0.1-1.1 0-2.2 0-3.4 0-0.6-0.1-1.4-0.2-2-0.2-2 5.2-7 8.9-12.9 8.9-7.7 0-13.9-6.2-13.9-13.8 0-1.5 0.3-3 0.7-4.3-0.1 0-0.1 0-0.1 0-1-0.7-2-1.4-2.9-2.1-0.9-0.7-1.6-1.3-2.1-1.9-0.6-0.5-1-0.9-1.3-1.3-0.2-0.2-0.4-0.4-0.4-0.4 0 0 0.2 0 0.6 0.2 0.4 0.2 1 0.4 1.6 0.8 0.7 0.2 1.5 0.6 2.5 0.9q1.4 0.6 3.2 1.2h0.1c0.7 0.4 1.5 0.6 2.4 0.9 0.4 0.1 0.9 0.3 1.4 0.5 0.3 0 0.7 0.2 1.1 0.3 1 0.4 2.1 0.7 3.2 1.1 0.1 0 0.1 0 0.2 0 1.4 0.4 3 0.8 4.5 1.3 1.6 0.4 3.2 0.8 4.9 1.2 0.8 0.3 1.7 0.5 2.7 0.7 0.4 0.1 0.8 0.2 1.2 0.3q0.5 0.1 0.9 0.2c0.2 0 0.4 0 0.5 0 0.9 0.2 1.7 0.4 2.6 0.6 0.5 0.1 1.1 0.2 1.6 0.3 0.8 0.1 1.6 0.3 2.3 0.4 0.3-0.1 0.6-0.2 0.7-0.3 0.6-0.2 58.4-20.6 58.7-53.8-2.3-15.2-10.3-28.7-21.9-38-1.7 19.5-16.6 38.5-43.5 55.3-19.8 12.4-40 19.6-42.7 20.5 0.1 0.4 0.2 0.8 0.2 1.2 0 2.7-1.6 5-3.9 6.1v24.6l20.8 14.7c0.6 0.5 1 1.3 1 2.1v14c0 0.8 0.7 1.4 1.5 1.4h7.7c0.8 0 1.5-0.6 1.5-1.4v-5.2c0-1.5 1.2-2.7 2.8-2.6 1.3 0.2 2.2 1.4 2.2 2.7v5.1c0 0.8 0.7 1.5 1.5 1.5h9.4c0.8 0 1.5-0.7 1.5-1.5v-7.9c0-1.4 1.2-2.6 2.8-2.5 1.3 0.1 2.2 1.3 2.2 2.6v7.8c0 0.8 0.7 1.4 1.5 1.4h9.4c0.8 0 1.5-0.6 1.5-1.4v-5.2c0-1.5 1.3-2.7 2.8-2.6 1.3 0.2 2.2 1.4 2.2 2.7v5c0 0.8 0.7 1.5 1.5 1.5h7.7c0.8 0 1.5-0.7 1.5-1.5v-14c0-0.8 0.4-1.6 1-2.1l20.9-14.7v-24.3c-2.6-0.9-4.4-3.4-4.4-6.2 0-3.7 3-6.7 6.7-6.7q0.3 0 0.6 0 3.1-7.1 4.2-14.9zm-1.4 21.6c0-0.2 0-0.4-0.1-0.6-0.3-1.5-1.6-2.6-3.2-2.6-0.4 0-0.8 0-1.1 0.2-1.2 0.4-2.1 1.6-2.1 3 0 0.8 0.3 1.5 0.9 2.1 0.6 0.6 1.3 1 2.3 1 1 0 1.9-0.5 2.5-1.2 0.4-0.6 0.6-1.2 0.8-1.9zm-71.2 17.6c-1.7-0.4-3.4-0.9-5.1-1.5-1.6-0.5-3.2-1.2-4.7-1.8-1.2-0.6-2.3-1.1-3.3-1.6-0.1 0.5-0.2 1-0.2 1.5 0 2.1 0.8 4.1 2.1 5.6 1.6 1.9 3.9 3.1 6.6 3.1 2.6 0 5-1.2 6.6-3.1 0.3-0.4 0.7-1 1-1.5-1-0.2-2-0.4-3-0.7z"/></svg>